<svg xmlns="http://www.w3.org/2000/svg" version="1.0" width="1034.000000pt" height="1024.000000pt" viewBox="0 0 1024.000000 1024.000000" preserveAspectRatio="xMidYMid meet">

<g transform="translate(-514.000000,1700.000000) scale(0.200000,-0.200000)" fill="#ffff" stroke="none">
<path d="M4805 8459 c-291 -44 -682 -176 -920 -311 -288 -163 -483 -322 -689 -558 -190 -219 -350 -482 -470 -775 -105 -258 -178 -639 -178 -925 0 -426 156 -910 419 -1303 126 -188 192 -268 355 -430 202 -200 442 -376 669 -489 367 -182 716 -261 1159 -261 368 1 725 80 1089 242 117 52 155 74 306 174 182 122 278 199 415 337 237 236 416 500 546 802 172 400 244 919 180 1283 -93 522 -258 898 -561 1280 -420 529 -1011 854 -1710 940 -169 21 -446 18 -610 -6z m383 -200 c53 -26 82 -70 82 -124 0 -105 -106 -173 -197 -126 -49 24 -93 74 -93 104 0 67 33 119 95 151 40 21 60 20 113 -5z m-436 -180 l1 -103 -71 -12 c-109 -18 -364 -110 -503 -180 -191 -97 -353 -209 -481 -332 -123 -119 -257 -277 -341 -404 -138 -207 -261 -505 -299 -722 -3 -17 -14 -19 -111 -20 -87 -1 -106 2 -102 13 3 7 12 46 21 85 40 180 96 331 200 539 125 251 250 425 443 618 322 321 740 535 1216 622 11 2 21 2 23 1 2 -1 4 -48 4 -105z m882 86 c365 -73 726 -256 1026 -523 278 -246 517 -597 645 -946 35 -95 112 -383 104 -390 -2 -2 -49 -6 -105 -9 l-101 -6 -17 87 c-66 341 -283 734 -565 1025 -148 153 -361 304 -568 403 -193 92 -302 130 -428 149 -137 21 -138 22 -131 41 3 9 6 56 6 105 0 49 2 89 4 89 2 0 61 -11 130 -25z m-275 -410 c135 -20 324 -66 422 -104 642 -248 1114 -817 1204 -1454 36 -250 5 -608 -70 -832 -30 -88 -122 -281 -180 -375 -197 -324 -528 -612 -866 -755 -125 -53 -370 -117 -513 -135 -120 -16 -386 -8 -505 14 -361 67 -659 205 -931 434 -91 76 -254 249 -333 355 -150 200 -272 510 -308 787 -17 133 -15 393 4 517 24 151 85 365 133 469 260 562 836 984 1474 1079 120 18 343 18 469 0z m-2402 -1695 c36 -21 73 -85 73 -124 0 -68 -50 -135 -111 -149 -65 -16 -161 53 -174 127 -12 60 31 139 85 159 34 12 96 6 127 -13z m4494 -3 c49 -32 71 -80 66 -145 -8 -106 -113 -164 -206 -111 -71 39 -108 128 -78 185 44 85 147 119 218 71z m-4396 -539 c14 -81 98 -314 159 -443 110 -229 220 -388 399 -572 176 -181 363 -316 591 -428 139 -68 352 -144 476 -170 l75 -16 0 -99 c0 -118 11 -112 -138 -74 -312 78 -546 179 -758 326 -295 204 -485 394 -673 673 -153 226 -294 575 -313 772 l-6 62 49 4 c138 10 131 12 139 -35z m4350 10 c-62 -280 -108 -416 -201 -603 -112 -222 -239 -399 -413 -572 -325 -325 -676 -525 -1091 -623 -52 -12 -119 -28 -149 -35 l-54 -13 7 67 c3 36 6 83 6 103 l0 37 58 10 c127 25 396 122 547 199 166 84 375 240 524 391 254 259 392 489 511 851 33 102 63 191 65 198 3 8 32 12 100 12 94 0 95 0 90 -22z m-2217 -1652 c73 -38 103 -126 68 -195 -60 -115 -247 -78 -272 54 -19 101 110 190 204 141z"/>
<path d="M5033 7505 c-59 -30 -122 -94 -153 -156 -19 -36 -22 -55 -18 -118 10 -172 99 -269 254 -279 93 -6 144 12 204 71 63 62 90 126 90 215 0 83 -20 135 -77 201 -47 56 -100 81 -181 87 -59 5 -74 2 -119 -21z m150 -150 c43 -21 69 -59 74 -110 7 -54 -16 -97 -61 -119 -70 -33 -139 -8 -176 64 -25 50 -20 86 18 131 41 50 89 61 145 34z"/>
<path d="M5814 7263 l-282 -3 -4 -73 c-3 -39 -4 -73 -3 -74 2 -5 845 -8 844 -3 0 3 -42 40 -92 82 -87 74 -94 78 -137 76 -25 -2 -172 -4 -326 -5z"/>
<path d="M4125 7251 c-28 -7 -142 -79 -205 -130 l-25 -21 325 0 c179 0 369 3 423 7 110 7 107 4 86 103 l-11 50 -281 -1 c-155 -1 -296 -4 -312 -8z"/>
<path d="M3704 6804 c6 -38 17 -1185 16 -1644 l0 -85 142 0 143 0 5 555 5 555 51 -70 c173 -236 416 -545 429 -545 2 0 38 48 81 108 43 59 137 181 209 272 72 91 137 176 144 188 7 13 16 21 19 17 4 -4 9 -248 12 -542 l5 -536 143 -1 142 -1 -2 883 -3 883 -82 2 c-53 1 -84 -2 -87 -9 -2 -6 -44 -64 -93 -130 -49 -65 -97 -132 -107 -149 -11 -16 -65 -88 -120 -159 -56 -71 -126 -161 -156 -201 -94 -122 -111 -141 -117 -127 -3 7 -42 59 -86 116 -107 134 -260 336 -392 514 l-105 142 -54 0 c-29 0 -75 3 -101 7 l-48 6 7 -49z"/>
<path d="M5404 6668 c5 -107 4 -477 -1 -888 -6 -388 -10 -706 -9 -706 1 -1 63 1 139 4 l137 5 0 311 c0 171 3 334 6 363 l7 52 69 -74 c38 -41 161 -188 272 -327 112 -139 221 -270 243 -291 l39 -37 179 2 178 3 -75 80 c-41 44 -104 119 -139 166 -68 91 -201 256 -364 451 -55 66 -117 143 -139 172 -35 49 -37 55 -23 72 105 129 148 181 242 287 61 68 157 180 215 248 58 68 139 159 180 201 l76 77 -181 3 c-157 3 -182 1 -192 -13 -14 -19 -165 -191 -279 -319 -42 -47 -113 -128 -159 -180 -45 -52 -99 -113 -118 -135 l-36 -40 -1 348 0 347 -137 0 -138 0 9 -182z"/>
<path d="M3928 4871 l-86 -6 56 -73 57 -73 365 7 c201 4 379 7 395 8 28 1 31 4 42 61 6 33 12 66 12 73 1 9 -80 12 -376 10 -208 -1 -417 -4 -465 -7z"/>
<path d="M5025 4858 c-59 -30 -113 -86 -146 -150 -35 -69 -36 -105 -7 -212 18 -69 28 -87 68 -127 113 -113 309 -100 405 27 37 49 69 142 69 204 0 100 -92 233 -183 265 -62 22 -157 19 -206 -7z m179 -159 c37 -29 56 -71 56 -123 0 -56 -35 -101 -91 -117 -33 -10 -45 -9 -80 6 -56 26 -81 64 -82 127 -1 47 2 53 41 89 35 33 48 39 85 39 30 0 53 -7 71 -21z"/>
<path d="M5538 4873 c-32 -5 -32 -6 -16 -85 l12 -58 276 -2 c151 0 328 0 393 2 l118 2 52 56 c29 30 58 61 65 68 6 7 12 14 12 16 0 5 -883 7 -912 1z"/>
<path d="M4357 4583 l-209 -3 36 -40 c19 -21 47 -57 62 -80 l27 -40 249 0 c243 0 248 0 238 19 -5 11 -10 49 -10 85 l0 66 -92 -2 c-51 -2 -187 -4 -301 -5z"/>
<path d="M5530 4511 l0 -79 83 -7 c45 -4 158 -4 250 -1 l169 5 30 48 c16 26 44 63 61 81 l31 32 -312 0 -312 0 0 -79z"/>

</g>
</svg>